<svg width="40" height="40" viewBox="0 0 40 40" fill="none" xmlns="http://www.w3.org/2000/svg">
<rect width="40" height="40" rx="8" fill="#F6417A"/>
<path d="M30.6634 17.55H20.875V23.9433C20.875 24.4217 20.4784 24.8183 20 24.8183C19.5217 24.8183 19.125 24.4217 19.125 23.9433V17.55H9.33671C8.77671 17.55 8.33337 17.9933 8.33337 18.5533C8.33337 25.425 13.1284 30.22 20 30.22C26.8717 30.22 31.6667 25.425 31.6667 18.5533C31.6667 17.9933 31.2234 17.55 30.6634 17.55Z" fill="#1B132F"/>
<path d="M20.875 12.7667L22.6951 14.5867C23.0334 14.925 23.5934 14.925 23.9317 14.5867C24.2701 14.2483 24.2701 13.6883 23.9317 13.35L20.6067 10.0367C20.2684 9.69835 19.7084 9.69835 19.37 10.0367L16.0567 13.3617C15.8934 13.5367 15.8 13.7583 15.8 13.98C15.8 14.2017 15.8817 14.4233 16.0567 14.5983C16.395 14.9367 16.955 14.9367 17.2934 14.5983L19.1134 12.7783V17.55H20.8634V12.7667H20.875Z" fill="#1B132F"/>
</svg>
