<svg width="72" height="72" viewBox="0 0 72 72" fill="none" xmlns="http://www.w3.org/2000/svg">
<g id="compound-comp-logo 1" clip-path="url(#clip0_290_1109)">
<path id="Vector" d="M36 72C55.8828 72 72 55.8828 72 36C72 16.1172 55.8828 0 36 0C16.1172 0 0 16.1172 0 36C0 55.8828 16.1172 72 36 72Z" fill="#0E0707"/>
<path id="Vector_2" fill-rule="evenodd" clip-rule="evenodd" d="M20.7972 48.0708C19.7208 47.412 19.062 46.242 19.062 44.982V37.9476C19.062 37.1124 19.7424 36.4356 20.5776 36.4392C20.844 36.4392 21.1068 36.5112 21.3372 36.6444L37.2096 45.9C38.1384 46.44 38.7108 47.4336 38.7108 48.51V55.7964C38.7144 56.7972 37.9044 57.6108 36.9036 57.6108C36.5688 57.6108 36.2376 57.5172 35.9532 57.3444L20.7972 48.0708ZM44.4564 34.7184C45.3852 35.2584 45.954 36.2556 45.9576 37.3284V52.1172C45.9576 52.5528 45.7236 52.956 45.342 53.1684L41.868 55.1232C41.8248 55.1484 41.778 55.1664 41.7276 55.1808V46.9692C41.7276 45.9072 41.1696 44.9208 40.2552 44.3736L26.316 36.036V26.766C26.316 25.9308 26.9964 25.254 27.8316 25.2576C28.098 25.2576 28.3608 25.3296 28.5912 25.4628L44.4564 34.7184ZM51.4044 23.796C52.3368 24.336 52.9092 25.3332 52.9092 26.4096V48.0096C52.9056 48.4524 52.6608 48.8592 52.272 49.0716L48.978 50.85V35.8128C48.978 34.7508 48.42 33.768 47.5128 33.2208L33.264 24.6744V15.8832C33.264 15.6168 33.336 15.354 33.4656 15.1236C33.8868 14.4036 34.812 14.1588 35.532 14.5764L51.4044 23.796Z" fill="#00D395"/>
</g>
<defs>
<clipPath id="clip0_290_1109">
<rect width="72" height="72" fill="white"/>
</clipPath>
</defs>
</svg>
