<svg width="32" height="32" viewBox="0 0 32 32" fill="none" xmlns="http://www.w3.org/2000/svg">
<g id="Frame 1261152724">
<path id="Vector" d="M25.01 7.65872C23.3525 6.89211 21.5759 6.32548 19.718 6.00328C19.7015 6.00002 19.6844 6.00212 19.669 6.00929C19.6537 6.01645 19.6409 6.02833 19.6325 6.04328C19.405 6.45325 19.1515 6.98766 18.9738 7.40985C17.0034 7.10791 15.0002 7.10791 13.0297 7.40985C12.8318 6.94195 12.6087 6.48572 12.3613 6.04328C12.3529 6.02815 12.3403 6.016 12.325 6.00846C12.3097 6.00091 12.2925 5.99833 12.2758 6.00106C10.419 6.32326 8.64236 6.88989 6.98382 7.65761C6.96955 7.66375 6.95746 7.67422 6.94916 7.68761C3.57792 12.7706 2.65386 17.7281 3.10777 22.6233C3.10903 22.6353 3.11266 22.6469 3.11843 22.6574C3.12421 22.6679 3.132 22.6771 3.14135 22.6844C5.10905 24.1537 7.30376 25.2729 9.63358 25.9953C9.64982 26.0004 9.66719 26.0004 9.68342 25.9953C9.69966 25.9901 9.714 25.9801 9.72458 25.9664C10.2259 25.2788 10.6702 24.5492 11.0527 23.7854C11.058 23.775 11.0611 23.7635 11.0617 23.7517C11.0623 23.74 11.0604 23.7282 11.0562 23.7173C11.052 23.7063 11.0455 23.6964 11.0373 23.6882C11.029 23.6801 11.0191 23.6738 11.0083 23.6699C10.3085 23.3996 9.63042 23.0734 8.98035 22.6944C8.96867 22.6876 8.95882 22.6779 8.9517 22.6662C8.94458 22.6545 8.9404 22.6411 8.93954 22.6274C8.93868 22.6136 8.94117 22.5998 8.94678 22.5873C8.95239 22.5747 8.96095 22.5638 8.97168 22.5555C9.10818 22.4522 9.24467 22.3444 9.37467 22.2367C9.38637 22.227 9.40047 22.2208 9.41538 22.2188C9.4303 22.2169 9.44546 22.2192 9.45917 22.2255C13.7133 24.1854 18.3206 24.1854 22.5249 22.2255C22.5386 22.2188 22.5539 22.2162 22.5691 22.218C22.5842 22.2197 22.5985 22.2258 22.6105 22.2355C22.7404 22.3444 22.8759 22.4522 23.0134 22.5555C23.0243 22.5637 23.033 22.5744 23.0388 22.5869C23.0446 22.5993 23.0472 22.613 23.0466 22.6268C23.046 22.6405 23.042 22.6539 23.0351 22.6657C23.0282 22.6775 23.0185 22.6874 23.0069 22.6944C22.3591 23.0766 21.6853 23.3999 20.9779 23.6688C20.9671 23.6728 20.9572 23.6792 20.9489 23.6875C20.9406 23.6958 20.9342 23.7058 20.93 23.7168C20.9258 23.7278 20.9239 23.7397 20.9245 23.7515C20.9251 23.7633 20.9282 23.7749 20.9335 23.7854C21.3235 24.5487 21.7698 25.2753 22.2605 25.9653C22.2707 25.9795 22.285 25.99 22.3012 25.9956C22.3175 26.0012 22.3351 26.0015 22.3515 25.9964C24.6854 25.2761 26.8837 24.1563 28.8535 22.6844C28.8631 22.6775 28.8712 22.6686 28.8772 22.6582C28.8832 22.6479 28.8869 22.6364 28.8882 22.6244C29.4298 16.9648 27.9804 12.0473 25.0435 7.68983C25.0364 7.67567 25.0244 7.66463 25.01 7.65872ZM11.6886 19.6424C10.4081 19.6424 9.35192 18.4547 9.35192 16.9981C9.35192 15.5404 10.3876 14.3538 11.6886 14.3538C12.9994 14.3538 14.0459 15.5504 14.0253 16.9981C14.0253 18.4558 12.9896 19.6424 11.6886 19.6424V19.6424ZM20.3279 19.6424C19.0464 19.6424 17.9913 18.4547 17.9913 16.9981C17.9913 15.5404 19.0258 14.3538 20.3279 14.3538C21.6387 14.3538 22.6852 15.5504 22.6646 16.9981C22.6646 18.4558 21.6398 19.6424 20.3279 19.6424V19.6424Z" fill="#FEFDFF"/>
</g>
</svg>
