<svg width="32" height="32" viewBox="0 0 32 32" fill="none" xmlns="http://www.w3.org/2000/svg">
<g id="Frame 1261152726">
<path id="Vector" d="M25.3715 5H6.62422C5.72617 5 5 5.70898 5 6.58555V25.4102C5 26.2867 5.72617 27 6.62422 27H25.3715C26.2695 27 27 26.2867 27 25.4145V6.58555C27 5.70898 26.2695 5 25.3715 5ZM11.527 23.7473H8.26133V13.2457H11.527V23.7473ZM9.89414 11.8148C8.8457 11.8148 7.99922 10.9684 7.99922 9.92422C7.99922 8.88008 8.8457 8.03359 9.89414 8.03359C10.9383 8.03359 11.7848 8.88008 11.7848 9.92422C11.7848 10.9641 10.9383 11.8148 9.89414 11.8148ZM23.7473 23.7473H20.4859V18.6426C20.4859 17.4266 20.4645 15.8582 18.7887 15.8582C17.0914 15.8582 16.8336 17.1859 16.8336 18.5566V23.7473H13.5766V13.2457H16.7047V14.6809H16.7477C17.1816 13.8559 18.2473 12.9836 19.8328 12.9836C23.1371 12.9836 23.7473 15.1578 23.7473 17.9852V23.7473V23.7473Z" fill="#FEFDFF"/>
</g>
</svg>
