<svg width="32" height="32" viewBox="0 0 32 32" fill="none" xmlns="http://www.w3.org/2000/svg">
<g id="Frame 1261152725">
<path id="Subtract" fill-rule="evenodd" clip-rule="evenodd" d="M16 29C23.1797 29 29 23.1797 29 16C29 8.8203 23.1797 3 16 3C8.8203 3 3 8.8203 3 16C3 23.1797 8.8203 29 16 29ZM17.2812 16.0001C17.2812 12.6864 14.756 10 11.6407 10C8.52542 10 6 12.6864 6 16.0001C6 19.3138 8.52561 22 11.6407 22C14.7558 22 17.2812 19.3138 17.2812 16.0001ZM23.4688 16.0001C23.4688 12.8802 22.2061 10.3515 20.6485 10.3515C19.0908 10.3515 17.8283 12.881 17.8283 16.0001C17.8283 19.1192 19.091 21.6487 20.6487 21.6487C22.2063 21.6487 23.469 19.1192 23.469 16.0001H23.4688ZM26 16.0001C26 13.2053 25.5558 10.9398 25.0081 10.9398C24.4604 10.9398 24.0163 13.2055 24.0163 16.0001C24.0163 18.7947 24.4602 21.0604 25.0081 21.0604C25.556 21.0604 26 18.794 26 16.0001Z" fill="#FEFDFF"/>
</g>
</svg>
