<svg width="40" height="40" viewBox="0 0 40 40" fill="none" xmlns="http://www.w3.org/2000/svg">
<rect width="40" height="40" rx="8" fill="#63DF95"/>
<path d="M24.8884 8.33334H15.1117C10.865 8.33334 8.33337 10.865 8.33337 15.1117V24.8767C8.33337 29.135 10.865 31.6667 15.1117 31.6667H24.8767C29.1234 31.6667 31.655 29.135 31.655 24.8883V15.1117C31.6667 10.865 29.135 8.33334 24.8884 8.33334ZM22.24 25.4017H16.5C16.0217 25.4017 15.625 25.005 15.625 24.5267C15.625 24.0483 16.0217 23.6517 16.5 23.6517H22.24C23.7334 23.6517 24.9584 22.4383 24.9584 20.9333C24.9584 19.4283 23.745 18.215 22.24 18.215H16.325L16.6284 18.5183C16.9667 18.8567 16.9667 19.4167 16.6284 19.755C16.4534 19.93 16.2317 20.0117 16.01 20.0117C15.7884 20.0117 15.5667 19.93 15.3917 19.755L13.56 17.9233C13.2217 17.585 13.2217 17.025 13.56 16.6867L15.3917 14.855C15.73 14.5167 16.29 14.5167 16.6284 14.855C16.9667 15.1933 16.9667 15.7533 16.6284 16.0917L16.2317 16.4767H22.24C24.7017 16.4767 26.7084 18.4833 26.7084 20.945C26.7084 23.4067 24.7017 25.4017 22.24 25.4017Z" fill="#1B132F"/>
</svg>
